<svg width="24.000000" height="24.000000" viewBox="0 0 24 24" fill="none" xmlns="http://www.w3.org/2000/svg" xmlns:xlink="http://www.w3.org/1999/xlink">
	<defs>
		<clipPath id="clip1_1921">
			<rect id="akar-icons:crown" width="24.000000" height="24.000000" fill="white" fill-opacity="0"/>
		</clipPath>
	</defs>
	<rect id="akar-icons:crown" width="24.000000" height="24.000000" fill="#FFFFFF" fill-opacity="0"/>
	<g clip-path="url(#clip1_1921)">
		<path id="Vector" d="M3.3 9.04C3.75 9.4 4.28 9.66 4.85 9.8C5.41 9.94 6 9.95 6.57 9.84C7.14 9.73 7.68 9.49 8.15 9.15C8.62 8.81 9.01 8.37 9.29 7.86L12 3L14.7 7.86C14.98 8.37 15.37 8.81 15.84 9.15C16.31 9.49 16.85 9.73 17.42 9.84C17.99 9.95 18.58 9.94 19.14 9.8C19.71 9.66 20.24 9.4 20.69 9.04L22 8L20.24 16.77C20.16 17.15 20 17.51 19.76 17.82C19.53 18.13 19.22 18.38 18.87 18.56C16.74 19.62 14.38 20.18 12 20.18C9.61 20.18 7.25 19.62 5.12 18.56C4.77 18.38 4.46 18.13 4.23 17.82C3.99 17.51 3.83 17.15 3.75 16.77L2 8L3.3 9.04Z" stroke="#1D1E25" stroke-opacity="1.000000" stroke-width="2.000000" stroke-linejoin="round"/>
		<path id="Vector" d="M8 15C10.59 16.33 13.4 16.33 16 15" stroke="#1D1E25" stroke-opacity="1.000000" stroke-width="2.000000" stroke-linejoin="round" stroke-linecap="round"/>
	</g>
</svg>
