<svg width="26.333252" height="33.000000" viewBox="0 0 26.3333 33" fill="none" xmlns="http://www.w3.org/2000/svg" xmlns:xlink="http://www.w3.org/1999/xlink">
	<desc>
			Created with Pixso.
	</desc>
	<defs/>
	<path id="Icon" d="M18.16 4.83L21.5 4.83C23.34 4.83 24.83 6.32 24.83 8.16L24.83 28.16C24.83 30 23.34 31.5 21.5 31.5L4.83 31.5C2.99 31.5 1.5 30 1.5 28.16L1.5 8.16C1.5 6.32 2.99 4.83 4.83 4.83L8.16 4.83M8.16 19.83L11.5 23.16L18.16 16.5M14.83 1.5C16.67 1.5 18.16 2.99 18.16 4.83C18.16 6.67 16.67 8.16 14.83 8.16L11.5 8.16C9.65 8.16 8.16 6.67 8.16 4.83C8.16 2.99 9.65 1.5 11.5 1.5L14.83 1.5Z" stroke="#FFFFFF" stroke-opacity="1.000000" stroke-width="3.000000" stroke-linecap="round"/>
</svg>
